<svg width="67" height="51" viewBox="0 0 67 51" fill="none" xmlns="http://www.w3.org/2000/svg">
<path fill-rule="evenodd" clip-rule="evenodd" d="M33.5339 6.3823C30.1481 6.3823 26.901 7.72538 24.5068 10.1161C22.1127 12.5068 20.7677 15.7493 20.7677 19.1302V22.3172H17.5761C16.1092 22.3172 14.6566 22.6057 13.3013 23.1663C11.9461 23.7268 10.7146 24.5485 9.67737 25.5842C8.6401 26.62 7.81729 27.8497 7.25592 29.203C6.69455 30.5563 6.40561 32.0068 6.40561 33.4716C6.40561 34.9364 6.69455 36.3869 7.25592 37.7402C7.81729 39.0935 8.6401 40.3232 9.67737 41.359C10.7146 42.3948 11.9461 43.2164 13.3013 43.777C14.6566 44.3375 16.1092 44.626 17.5761 44.626H49.4918C50.9587 44.626 52.4113 44.3375 53.7665 43.777C55.1218 43.2164 56.3532 42.3948 57.3905 41.359C58.4278 40.3232 59.2506 39.0935 59.8119 37.7402C60.3733 36.3869 60.6622 34.9364 60.6622 33.4716C60.6622 32.0068 60.3733 30.5563 59.8119 29.203C59.2506 27.8497 58.4278 26.62 57.3905 25.5842C56.3532 24.5485 55.1218 23.7268 53.7665 23.1663C52.4113 22.6057 50.9587 22.3172 49.4918 22.3172H46.3002V19.1302C46.3002 15.7493 44.9552 12.5068 42.561 10.1161C40.1669 7.72538 36.9198 6.3823 33.5339 6.3823ZM14.6079 16.1918C15.3089 11.6819 17.6019 7.57094 21.0728 4.60152C24.5436 1.63211 28.9634 0 33.5339 0C38.1044 0 42.5243 1.63211 45.9951 4.60152C49.4659 7.57094 51.7589 11.6819 52.4599 16.1918C56.7849 16.9458 60.6701 19.2902 63.3498 22.7629C66.0294 26.2356 67.3091 30.5848 66.9367 34.953C66.5642 39.3212 64.5665 43.3917 61.3374 46.362C58.1083 49.3323 53.8821 50.9871 49.4918 51H17.5761C13.1745 51.0056 8.93148 49.3598 5.68785 46.3887C2.44422 43.4176 0.436765 39.3382 0.0633264 34.9588C-0.310113 30.5794 0.977724 26.2197 3.6716 22.7438C6.36548 19.2679 10.2688 16.9294 14.6079 16.1918Z" fill="white"/>
</svg>
