<svg width="14" height="14" viewBox="0 0 14 14" fill="none" xmlns="http://www.w3.org/2000/svg">
<path fill-rule="evenodd" clip-rule="evenodd" d="M0.499999 0.500001C0.715488 0.284512 1.00775 0.163452 1.3125 0.163452C1.61725 0.163452 1.90951 0.284512 2.125 0.5L7 5.375L11.875 0.5C12.0905 0.284511 12.3828 0.163452 12.6875 0.163452C12.9922 0.163452 13.2845 0.284512 13.5 0.500001C13.7155 0.715489 13.8365 1.00775 13.8365 1.3125C13.8365 1.61725 13.7155 1.90951 13.5 2.125L8.625 7L13.5 11.875C13.7155 12.0905 13.8365 12.3828 13.8365 12.6875C13.8365 12.9922 13.7155 13.2845 13.5 13.5C13.2845 13.7155 12.9922 13.8365 12.6875 13.8365C12.3828 13.8365 12.0905 13.7155 11.875 13.5L7 8.625L2.125 13.5C1.90951 13.7155 1.61725 13.8365 1.3125 13.8365C1.00775 13.8365 0.715488 13.7155 0.499999 13.5C0.284511 13.2845 0.163451 12.9922 0.163451 12.6875C0.163451 12.3828 0.284511 12.0905 0.499999 11.875L5.375 7L0.499999 2.125C0.284511 1.90951 0.163451 1.61725 0.163451 1.3125C0.163451 1.00775 0.284511 0.715489 0.499999 0.500001Z" fill="#A9F9C4"/>
</svg>
