<svg width="17" height="17" viewBox="0 0 17 17" fill="none" xmlns="http://www.w3.org/2000/svg">
<path fill-rule="evenodd" clip-rule="evenodd" d="M11.8057 0.805163C12.3214 0.289617 13.0208 0 13.75 0C14.4792 0 15.1785 0.289617 15.6942 0.805163L15.8519 0.962829C16.3674 1.47853 16.657 2.17788 16.657 2.90708C16.657 3.63628 16.3674 4.33563 15.8519 4.85133L14.2596 6.44541L5.23138 15.4727C5.11405 15.5901 4.96704 15.6735 4.80605 15.7138L1.13938 16.6305C0.985766 16.669 0.8248 16.667 0.672173 16.6248C0.519546 16.5825 0.380465 16.5015 0.268485 16.3895C0.156505 16.2775 0.075446 16.1384 0.0332072 15.9858C-0.00903162 15.8332 -0.011009 15.6722 0.0274679 15.5186L0.944135 11.8519C0.984508 11.6909 1.06783 11.5439 1.18522 11.4266L10.2657 2.34608L11.8057 0.806079V0.805163ZM14.3981 2.10133C14.2262 1.92948 13.993 1.83294 13.75 1.83294C13.5069 1.83294 13.2738 1.92948 13.1019 2.10133L12.1981 3.00516L13.6235 4.48741L14.5557 3.55516C14.7276 3.38326 14.8241 3.15015 14.8241 2.90708C14.8241 2.66401 14.7276 2.4309 14.5557 2.259L14.3981 2.10133ZM12.3264 5.78358L10.901 4.30225L2.66105 12.5431L2.17613 14.4809L4.11488 13.996L12.3273 5.78358H12.3264Z" fill="#8E8E8E"/>
</svg>
