<svg width="22" height="17" viewBox="0 0 22 17" fill="none" xmlns="http://www.w3.org/2000/svg">
<path fill-rule="evenodd" clip-rule="evenodd" d="M18.551 1.707C18.7332 1.5184 18.834 1.2658 18.8317 1.0036C18.8294 0.741402 18.7243 0.49059 18.5389 0.305182C18.3535 0.119773 18.1026 0.0146042 17.8404 0.0123258C17.5783 0.0100473 17.3256 0.110842 17.137 0.293L12.876 4.553C12.1121 4.10201 11.2198 3.9178 10.3397 4.02935C9.45961 4.14089 8.64154 4.54186 8.01423 5.16918C7.38691 5.79649 6.98594 6.61456 6.8744 7.49468C6.76285 8.37479 6.94706 9.26702 7.39805 10.031L3.13705 14.293C3.04154 14.3852 2.96535 14.4956 2.91295 14.6176C2.86054 14.7396 2.83295 14.8708 2.8318 15.0036C2.83064 15.1364 2.85594 15.2681 2.90623 15.391C2.95651 15.5138 3.03076 15.6255 3.12465 15.7194C3.21854 15.8133 3.3302 15.8875 3.45309 15.9378C3.57599 15.9881 3.70767 16.0134 3.84045 16.0123C3.97323 16.0111 4.10445 15.9835 4.22645 15.9311C4.34846 15.8787 4.4588 15.8025 4.55105 15.707L8.81205 11.447C9.57603 11.898 10.4683 12.0822 11.3484 11.9707C12.2285 11.8591 13.0466 11.4581 13.6739 10.8308C14.3012 10.2035 14.7022 9.38544 14.8137 8.50532C14.9252 7.62521 14.741 6.73298 14.29 5.969L18.551 1.707ZM11.362 6.067C11.0229 5.97598 10.6657 5.97588 10.3264 6.06672C9.98718 6.15756 9.67783 6.33612 9.4295 6.58445C9.18117 6.83278 9.0026 7.14213 8.91177 7.48138C8.82093 7.82062 8.82103 8.1778 8.91205 8.517L11.362 6.067ZM10.326 9.932L12.776 7.482C12.8671 7.8212 12.8672 8.17838 12.7763 8.51762C12.6855 8.85687 12.5069 9.16622 12.2586 9.41455C12.0103 9.66288 11.7009 9.84145 11.3617 9.93228C11.0224 10.0231 10.6652 10.023 10.326 9.932ZM14.609 0.821C13.474 0.32 12.211 0 10.844 0C7.99205 0 5.60105 1.395 3.84205 2.906C2.07705 4.423 0.852047 6.138 0.308047 6.97C0.10708 7.27593 0 7.63397 0 8C0 8.36603 0.10708 8.72407 0.308047 9.03C1.10228 10.2394 2.02352 11.3604 3.05605 12.374L4.47005 10.96C3.55325 10.0618 2.73341 9.06965 2.02405 8C2.53405 7.227 3.62205 5.732 5.14505 4.423C6.71805 3.072 8.66005 2 10.844 2C11.5989 2.00286 12.3484 2.12677 13.064 2.367L14.609 0.821ZM10.844 14C10.0892 13.9971 9.33967 13.8732 8.62405 13.633L7.08005 15.18C8.21605 15.68 9.47805 16.001 10.845 16.001C13.697 16.001 16.088 14.606 17.847 13.095C19.612 11.578 20.837 9.863 21.381 9.031C21.792 8.403 21.792 7.6 21.381 6.971C20.5868 5.7616 19.6656 4.64057 18.633 3.627L17.218 5.04C18.1349 5.93822 18.9547 6.93034 19.664 8C19.154 8.773 18.066 10.268 16.543 11.577C14.97 12.928 13.028 14 10.844 14Z" fill="#575757"/>
</svg>
