<svg width="43" height="43" viewBox="0 0 43 43" fill="none" xmlns="http://www.w3.org/2000/svg">
<ellipse cx="21.8353" cy="21.3439" rx="20.9783" ry="20.9186" fill="#00CC99"/>
<path d="M21.992 33.078C15.5792 33.078 10.3809 27.8946 10.3809 21.5C10.3809 15.1054 15.5792 9.92194 21.992 9.92194C28.4048 9.92194 33.6031 15.1054 33.6031 21.5C33.6031 27.8946 28.4048 33.078 21.992 33.078ZM21.992 30.7624C24.4556 30.7624 26.8182 29.7866 28.5603 28.0495C30.3023 26.3125 31.2809 23.9565 31.2809 21.5C31.2809 19.0434 30.3023 16.6875 28.5603 14.9505C26.8182 13.2134 24.4556 12.2375 21.992 12.2375C19.5284 12.2375 17.1658 13.2134 15.4237 14.9505C13.6817 16.6875 12.7031 19.0434 12.7031 21.5C12.7031 23.9565 13.6817 26.3125 15.4237 28.0495C17.1658 29.7866 19.5284 30.7624 21.992 30.7624ZM20.8344 26.1312L15.9078 21.2186L17.5496 19.5815L20.8344 22.8569L27.4016 16.3072L29.0446 17.9444L20.8344 26.1312Z" fill="white"/>
</svg>
