<svg width="22" height="21" viewBox="0 0 22 21" fill="none" xmlns="http://www.w3.org/2000/svg">
<path fill-rule="evenodd" clip-rule="evenodd" d="M10.553 0.105949C10.6918 0.036594 10.8448 0.000488281 11 0.000488281C11.1552 0.000488281 11.3082 0.036594 11.447 0.105949L21.447 5.10571C21.6482 5.20656 21.8096 5.37235 21.9049 5.57627C22.0002 5.78018 22.0239 6.01028 21.9722 6.22935C21.9205 6.44842 21.7964 6.64364 21.62 6.78342C21.4435 6.9232 21.2251 6.99938 21 6.99962H1C0.774904 6.99938 0.556472 6.9232 0.380043 6.78342C0.203614 6.64364 0.0795081 6.44842 0.0278039 6.22935C-0.0239003 6.01028 -0.00017871 5.78018 0.095131 5.57627C0.190441 5.37235 0.351764 5.20656 0.553 5.10571L10.553 0.105949ZM5.236 4.99971H16.764L11 2.11785L5.236 4.99971ZM5 7.99957C5.26522 7.99957 5.51957 8.10492 5.70711 8.29245C5.89464 8.47997 6 8.73432 6 8.99952V13.9993C6 14.2645 5.89464 14.5188 5.70711 14.7064C5.51957 14.8939 5.26522 14.9992 5 14.9992C4.73478 14.9992 4.48043 14.8939 4.29289 14.7064C4.10536 14.5188 4 14.2645 4 13.9993V8.99952C4 8.73432 4.10536 8.47997 4.29289 8.29245C4.48043 8.10492 4.73478 7.99957 5 7.99957ZM9 7.99957C9.26522 7.99957 9.51957 8.10492 9.70711 8.29245C9.89464 8.47997 10 8.73432 10 8.99952V13.9993C10 14.2645 9.89464 14.5188 9.70711 14.7064C9.51957 14.8939 9.26522 14.9992 9 14.9992C8.73478 14.9992 8.48043 14.8939 8.29289 14.7064C8.10536 14.5188 8 14.2645 8 13.9993V8.99952C8 8.73432 8.10536 8.47997 8.29289 8.29245C8.48043 8.10492 8.73478 7.99957 9 7.99957ZM13 7.99957C13.2652 7.99957 13.5196 8.10492 13.7071 8.29245C13.8946 8.47997 14 8.73432 14 8.99952V13.9993C14 14.2645 13.8946 14.5188 13.7071 14.7064C13.5196 14.8939 13.2652 14.9992 13 14.9992C12.7348 14.9992 12.4804 14.8939 12.2929 14.7064C12.1054 14.5188 12 14.2645 12 13.9993V8.99952C12 8.73432 12.1054 8.47997 12.2929 8.29245C12.4804 8.10492 12.7348 7.99957 13 7.99957ZM17 7.99957C17.2652 7.99957 17.5196 8.10492 17.7071 8.29245C17.8946 8.47997 18 8.73432 18 8.99952V13.9993C18 14.2645 17.8946 14.5188 17.7071 14.7064C17.5196 14.8939 17.2652 14.9992 17 14.9992C16.7348 14.9992 16.4804 14.8939 16.2929 14.7064C16.1054 14.5188 16 14.2645 16 13.9993V8.99952C16 8.73432 16.1054 8.47997 16.2929 8.29245C16.4804 8.10492 16.7348 7.99957 17 7.99957ZM2 16.9991C2 16.7339 2.10536 16.4796 2.29289 16.2921C2.48043 16.1045 2.73478 15.9992 3 15.9992H19C19.2652 15.9992 19.5196 16.1045 19.7071 16.2921C19.8946 16.4796 20 16.7339 20 16.9991C20 17.2643 19.8946 17.5187 19.7071 17.7062C19.5196 17.8937 19.2652 17.9991 19 17.9991H3C2.73478 17.9991 2.48043 17.8937 2.29289 17.7062C2.10536 17.5187 2 17.2643 2 16.9991ZM0 19.999C0 19.7338 0.105357 19.4794 0.292893 19.2919C0.48043 19.1044 0.734784 18.999 1 18.999H21C21.2652 18.999 21.5196 19.1044 21.7071 19.2919C21.8946 19.4794 22 19.7338 22 19.999C22 20.2642 21.8946 20.5185 21.7071 20.7061C21.5196 20.8936 21.2652 20.9989 21 20.9989H1C0.734784 20.9989 0.48043 20.8936 0.292893 20.7061C0.105357 20.5185 0 20.2642 0 19.999Z" fill="white"/>
</svg>
