<svg width="24" height="21" viewBox="0 0 24 21" fill="none" xmlns="http://www.w3.org/2000/svg">
<path fill-rule="evenodd" clip-rule="evenodd" d="M12.778 3.91681C16.915 3.79982 20.435 6.92466 20.938 10.9795H21.481C21.5811 10.9795 21.6788 10.9495 21.7617 10.8934C21.8445 10.8373 21.9086 10.7576 21.9456 10.6646C21.9827 10.5717 21.991 10.4698 21.9695 10.372C21.948 10.2743 21.8976 10.1853 21.825 10.1165L21.71 10.0075C21.5225 9.82402 21.4146 9.57417 21.4096 9.31185C21.4046 9.04953 21.5029 8.79575 21.6833 8.60524C21.8637 8.41474 22.1118 8.30277 22.374 8.29348C22.6362 8.28419 22.8916 8.37832 23.085 8.55559L23.2 8.66458C24.842 10.2185 23.742 12.9794 21.481 12.9794H20.914C20.677 14.3393 19.958 15.4353 19 16.3932V19.979C19 20.2442 18.8946 20.4986 18.7071 20.6861C18.5196 20.8736 18.2652 20.979 18 20.979H15C14.79 20.979 14.5854 20.913 14.415 20.7902C14.2447 20.6675 14.1173 20.4942 14.051 20.295L13.684 19.1931C13.5662 18.8396 13.3402 18.5322 13.038 18.3143C12.7357 18.0964 12.3726 17.9792 12 17.9792C11.6274 17.9792 11.2643 18.0964 10.962 18.3143C10.6598 18.5322 10.4338 18.8396 10.316 19.1931L9.949 20.295C9.88265 20.4942 9.75528 20.6675 9.58495 20.7902C9.41462 20.913 9.20996 20.979 9 20.979H6C5.73478 20.979 5.48043 20.8736 5.29289 20.6861C5.10536 20.4986 5 20.2442 5 19.979V16.9792C5 16.4512 4.603 15.7692 3.724 15.1213C2.876 14.4953 1.792 14.0693 0.894 13.9733C0.64859 13.9472 0.421522 13.8312 0.256483 13.6477C0.091443 13.4642 9.03628e-05 13.2262 0 12.9794V8.97957C9.91486e-05 8.79391 0.0518831 8.61195 0.149552 8.45406C0.247222 8.29618 0.386919 8.1686 0.553 8.08561L2.17 7.27665C2.828 5.44674 4.483 4.41079 6 4.0898V0.979953C6.00019 0.748731 6.0805 0.524718 6.22727 0.346047C6.37405 0.167376 6.57821 0.0450882 6.805 0L7.125 0.002C7.417 0.002 7.71 0.00399982 8 0.0359983C10.031 0.262987 12.085 2.0319 12.778 3.91581V3.91681ZM8 4.97976V2.0599C9.231 2.40388 10.882 3.59583 11 5.00376C11.0049 5.14119 11.0377 5.27619 11.0966 5.40047C11.1555 5.52475 11.2391 5.6357 11.3424 5.72651C11.4457 5.81733 11.5664 5.8861 11.6972 5.9286C11.828 5.97111 11.9661 5.98646 12.103 5.97371L12.383 5.94571C15.91 5.58173 19 8.40959 19 11.9794C19 12.9944 18.597 13.9693 17.879 14.6863C17.8138 14.7508 17.7474 14.8141 17.68 14.8763C17.352 15.1813 17 15.5103 17 15.9792V18.9791H15.72L15.581 18.5601C15.3303 17.8087 14.8496 17.1552 14.2069 16.6921C13.5642 16.229 12.7922 15.9798 12 15.9798C11.2078 15.9798 10.4358 16.229 9.79308 16.6921C9.15039 17.1552 8.66968 17.8087 8.419 18.5601L8.279 18.9791H7V16.9792C7 15.5072 5.987 14.3053 4.911 13.5113C4.03735 12.8732 3.04905 12.4091 2 12.1444V9.59754L3.447 8.87357C3.57605 8.80906 3.68961 8.71739 3.77989 8.60485C3.87016 8.49231 3.93502 8.36157 3.97 8.2216C4.33 6.78567 5.826 5.97971 7 5.97971C7.26522 5.97971 7.51957 5.87436 7.70711 5.68683C7.89464 5.4993 8 5.24496 8 4.97976ZM7.5 10.9795C7.89782 10.9795 8.27936 10.8214 8.56066 10.5402C8.84196 10.2589 9 9.87735 9 9.47954C9 9.08174 8.84196 8.70022 8.56066 8.41893C8.27936 8.13764 7.89782 7.97961 7.5 7.97961C7.10218 7.97961 6.72064 8.13764 6.43934 8.41893C6.15804 8.70022 6 9.08174 6 9.47954C6 9.87735 6.15804 10.2589 6.43934 10.5402C6.72064 10.8214 7.10218 10.9795 7.5 10.9795Z" fill="white"/>
</svg>
