<svg width="28" height="28" viewBox="0 0 28 28" fill="none" xmlns="http://www.w3.org/2000/svg">
<path fill-rule="evenodd" clip-rule="evenodd" d="M27.2352 1.07843C27.6687 1.51201 27.9123 2.10006 27.9123 2.71323C27.9123 3.3264 27.6687 3.91446 27.2352 4.34804L17.4263 14.1569L27.2352 23.9657C27.6687 24.3993 27.9123 24.9873 27.9123 25.6005C27.9123 26.2137 27.6687 26.8017 27.2352 27.2353C26.8016 27.6689 26.2135 27.9124 25.6004 27.9124C24.9872 27.9124 24.3991 27.6689 23.9656 27.2353L14.1567 17.4265L4.34792 27.2353C3.91434 27.6689 3.32628 27.9124 2.71311 27.9124C2.09994 27.9124 1.51189 27.6689 1.07831 27.2353C0.644731 26.8017 0.40115 26.2137 0.401148 25.6005C0.40115 24.9873 0.644731 24.3993 1.07831 23.9657L10.8871 14.1569L1.07831 4.34804C0.644731 3.91446 0.401151 3.3264 0.401151 2.71323C0.401151 2.10006 0.644731 1.51201 1.07831 1.07843C1.51189 0.644853 2.09994 0.401272 2.71311 0.401272C3.32628 0.401272 3.91434 0.644853 4.34792 1.07843L14.1567 10.8873L23.9656 1.07843C24.3991 0.644853 24.9872 0.401272 25.6004 0.401272C26.2135 0.401272 26.8016 0.644853 27.2352 1.07843Z" fill="#A9F9C4"/>
</svg>
