<svg width="18" height="12" viewBox="0 0 18 12" fill="none" xmlns="http://www.w3.org/2000/svg">
<path fill-rule="evenodd" clip-rule="evenodd" d="M6.70679 0.292787C6.89426 0.480314 6.99957 0.734622 6.99957 0.999786C6.99957 1.26495 6.89426 1.51926 6.70679 1.70679L2.41379 5.99979L6.70679 10.2928C6.88894 10.4814 6.98974 10.734 6.98746 10.9962C6.98518 11.2584 6.88001 11.5092 6.6946 11.6946C6.5092 11.88 6.25838 11.9852 5.99619 11.9875C5.73399 11.9897 5.48139 11.8889 5.29279 11.7068L0.292786 6.70679C0.105315 6.51926 0 6.26495 0 5.99979C0 5.73462 0.105315 5.48031 0.292786 5.29279L5.29279 0.292787C5.48031 0.105316 5.73462 0 5.99979 0C6.26495 0 6.51926 0.105316 6.70679 0.292787ZM11.2928 0.292787C11.4803 0.105316 11.7346 0 11.9998 0C12.265 0 12.5193 0.105316 12.7068 0.292787L17.7068 5.29279C17.8943 5.48031 17.9996 5.73462 17.9996 5.99979C17.9996 6.26495 17.8943 6.51926 17.7068 6.70679L12.7068 11.7068C12.5182 11.8889 12.2656 11.9897 12.0034 11.9875C11.7412 11.9852 11.4904 11.88 11.305 11.6946C11.1196 11.5092 11.0144 11.2584 11.0121 10.9962C11.0098 10.734 11.1106 10.4814 11.2928 10.2928L15.5858 5.99979L11.2928 1.70679C11.1053 1.51926 11 1.26495 11 0.999786C11 0.734622 11.1053 0.480314 11.2928 0.292787Z" fill="white"/>
</svg>
