<svg width="22" height="22" viewBox="0 0 22 22" fill="none" xmlns="http://www.w3.org/2000/svg">
<path fill-rule="evenodd" clip-rule="evenodd" d="M2.72436 7.45163L6.29036 6.1937C5.5541 7.18479 4.92177 8.24901 4.40336 9.36954L2.72436 7.45163ZM0.247361 7.65863L3.55036 11.4324L3.07236 12.6284C2.99961 12.8099 2.98168 13.0087 3.02078 13.2003C3.05989 13.3919 3.15431 13.5678 3.29236 13.7063L3.60736 14.0203C1.90336 15.9402 0.963361 17.9491 0.0513613 20.683C-0.0073983 20.8592 -0.0159257 21.0482 0.0267349 21.229C0.0693956 21.4098 0.161558 21.5751 0.292893 21.7064C0.424228 21.8377 0.589545 21.9299 0.770316 21.9726C0.951086 22.0152 1.14017 22.0067 1.31636 21.9479C4.05036 21.036 6.05936 20.096 7.97936 18.3921L8.29336 18.7061C8.43174 18.8443 8.60762 18.9389 8.79923 18.9782C8.99084 19.0175 9.18975 18.9997 9.37136 18.9271L10.5674 18.4491L14.3414 21.7519C14.4643 21.8596 14.6118 21.9355 14.7708 21.973C14.9299 22.0104 15.0957 22.0084 15.2538 21.9669C15.4119 21.9255 15.5574 21.8459 15.6776 21.7352C15.7978 21.6246 15.8891 21.4861 15.9434 21.332L18.9294 12.8724C20.9127 10.5256 22.0007 7.5523 22.0004 4.47978V0.999951C22.0004 0.734748 21.895 0.480406 21.7075 0.292879C21.5199 0.105352 21.2656 1.27661e-07 21.0004 1.27661e-07H17.5204C14.4481 -0.000430213 11.4751 1.08715 9.12836 3.06985L0.668361 6.0567C0.514403 6.11107 0.376098 6.2023 0.265529 6.32243C0.154959 6.44256 0.0754872 6.58794 0.0340563 6.74586C-0.00737464 6.90378 -0.00950477 7.06945 0.0278522 7.22838C0.0652091 7.38732 0.140917 7.53469 0.248361 7.65762L0.247361 7.65863ZM2.68536 19.3141C3.31336 17.7981 4.01736 16.5922 5.02436 15.4372L6.56236 16.9752C5.40736 17.9821 4.20136 18.6861 2.68536 19.3141ZM9.24136 16.8262L8.70736 16.2922L5.70736 13.2923L5.17336 12.7584L5.88336 10.9835C6.53493 9.35519 7.4498 7.84512 8.59136 6.51368L9.16736 5.84071C10.2002 4.63589 11.4815 3.66881 12.9233 3.00583C14.3652 2.34286 15.9334 1.9997 17.5204 1.9999H20.0004V4.47978C20.0006 6.06667 19.6574 7.63482 18.9944 9.07658C18.3314 10.5184 17.3642 11.7996 16.1594 12.8324L15.4864 13.4083C14.1548 14.5498 12.6447 15.4646 11.0164 16.1162L9.24136 16.8262ZM14.5484 19.2751L12.6304 17.5971C13.751 17.0788 14.8152 16.4465 15.8064 15.7102L14.5484 19.2751ZM14.0004 6.99966C14.0004 6.73445 14.1057 6.48011 14.2933 6.29258C14.4808 6.10506 14.7351 5.99971 15.0004 5.99971C15.2656 5.99971 15.5199 6.10506 15.7075 6.29258C15.895 6.48011 16.0004 6.73445 16.0004 6.99966C16.0004 7.26486 15.895 7.5192 15.7075 7.70673C15.5199 7.89426 15.2656 7.99961 15.0004 7.99961C14.7351 7.99961 14.4808 7.89426 14.2933 7.70673C14.1057 7.5192 14.0004 7.26486 14.0004 6.99966ZM15.0004 3.9998C14.2047 3.9998 13.4416 4.31586 12.879 4.87844C12.3164 5.44102 12.0004 6.20405 12.0004 6.99966C12.0004 7.79527 12.3164 8.55829 12.879 9.12087C13.4416 9.68346 14.2047 9.99951 15.0004 9.99951C15.796 9.99951 16.5591 9.68346 17.1217 9.12087C17.6843 8.55829 18.0004 7.79527 18.0004 6.99966C18.0004 6.20405 17.6843 5.44102 17.1217 4.87844C16.5591 4.31586 15.796 3.9998 15.0004 3.9998Z" fill="white"/>
</svg>
