<svg width="23" height="21" viewBox="0 0 23 21" fill="none" xmlns="http://www.w3.org/2000/svg">
<path fill-rule="evenodd" clip-rule="evenodd" d="M10.8101 0.775986C10.9961 0.598706 11.2432 0.499809 11.5001 0.499809C11.7571 0.499809 12.0042 0.598706 12.1901 0.775986L20.1901 8.39461L22.6901 10.7745C22.8824 10.9575 22.9941 11.2094 23.0007 11.4747C23.0073 11.7401 22.9081 11.9971 22.7251 12.1894C22.5421 12.3817 22.2903 12.4934 22.0249 12.5C21.7595 12.5065 21.5024 12.4074 21.3101 12.2244L20.5001 11.4515V18.9991C20.5001 19.5295 20.2894 20.0382 19.9144 20.4132C19.5393 20.7883 19.0306 20.999 18.5001 20.999H4.50014C3.96971 20.999 3.461 20.7883 3.08592 20.4132C2.71085 20.0382 2.50014 19.5295 2.50014 18.9991V11.4515L1.69014 12.2234C1.49812 12.4064 1.24127 12.5056 0.976097 12.4993C0.71092 12.4929 0.459138 12.3814 0.276138 12.1894C0.093139 11.9974 -0.00608689 11.7406 0.000289351 11.4754C0.00666559 11.2103 0.118122 10.9585 0.310138 10.7755L2.81014 8.39461L10.8101 0.774986V0.775986ZM4.50014 9.54755V18.9991H8.50014V13.9993C8.50014 13.2037 8.81621 12.4407 9.37882 11.8781C9.94143 11.3155 10.7045 10.9995 11.5001 10.9995C12.2958 10.9995 13.0589 11.3155 13.6215 11.8781C14.1841 12.4407 14.5001 13.2037 14.5001 13.9993V18.9991H18.5001V9.54755L11.5001 2.87988L4.50014 9.54655V9.54755ZM12.5001 18.9991V13.9993C12.5001 13.7341 12.3948 13.4798 12.2072 13.2923C12.0197 13.1047 11.7654 12.9994 11.5001 12.9994C11.2349 12.9994 10.9806 13.1047 10.793 13.2923C10.6055 13.4798 10.5001 13.7341 10.5001 13.9993V18.9991H12.5001Z" fill="white"/>
</svg>
