<svg width="20" height="20" viewBox="0 0 20 20" fill="none" xmlns="http://www.w3.org/2000/svg">
<path fill-rule="evenodd" clip-rule="evenodd" d="M7.7944 0C7.52919 0 7.27483 0.105357 7.0873 0.292893C6.89976 0.48043 6.7944 0.734784 6.7944 1V2.582C6.10476 2.86134 5.45751 3.23562 4.8714 3.694L3.5004 2.902C3.27072 2.7694 2.99778 2.73346 2.7416 2.8021C2.48543 2.87074 2.26702 3.03833 2.1344 3.268L0.134403 6.732C0.00180106 6.96168 -0.0341335 7.23463 0.0345043 7.4908C0.103142 7.74697 0.27073 7.96539 0.500404 8.098L1.8704 8.889C1.76785 9.62612 1.76785 10.3739 1.8704 11.111L0.500404 11.901C0.386548 11.9667 0.286755 12.0541 0.206729 12.1584C0.126704 12.2627 0.0680162 12.3817 0.0340237 12.5086C3.1095e-05 12.6356 -0.00860006 12.768 0.00862398 12.8983C0.025848 13.0286 0.0685893 13.1542 0.134403 13.268L2.1344 16.732C2.26702 16.9617 2.48543 17.1293 2.7416 17.1979C2.99778 17.2665 3.27072 17.2306 3.5004 17.098L4.8714 16.306C5.4524 16.761 6.0994 17.136 6.7944 17.418V19C6.7944 19.2652 6.89976 19.5196 7.0873 19.7071C7.27483 19.8946 7.52919 20 7.7944 20H11.7944C12.0596 20 12.314 19.8946 12.5015 19.7071C12.689 19.5196 12.7944 19.2652 12.7944 19V17.418C13.484 17.1386 14.1313 16.7644 14.7174 16.306L16.0884 17.098C16.3181 17.2306 16.591 17.2665 16.8472 17.1979C17.1034 17.1293 17.3218 16.9617 17.4544 16.732L19.4544 13.268C19.587 13.0383 19.6229 12.7654 19.5543 12.5092C19.4857 12.253 19.3181 12.0346 19.0884 11.902L17.7184 11.111C17.8209 10.3739 17.8209 9.62612 17.7184 8.889L19.0884 8.099C19.2023 8.03334 19.3021 7.94587 19.3821 7.84161C19.4621 7.73735 19.5208 7.61833 19.5548 7.49137C19.5888 7.36441 19.5974 7.23199 19.5802 7.10169C19.563 6.97139 19.5202 6.84577 19.4544 6.732L17.4544 3.268C17.3218 3.03833 17.1034 2.87074 16.8472 2.8021C16.591 2.73346 16.3181 2.7694 16.0884 2.902L14.7174 3.694C14.1313 3.23563 13.484 2.86135 12.7944 2.582V1C12.7944 0.734784 12.689 0.48043 12.5015 0.292893C12.314 0.105357 12.0596 0 11.7944 0H7.7944ZM8.7944 3.29V2H10.7944V3.29C10.7945 3.50539 10.8642 3.71498 10.993 3.8876C11.1218 4.06021 11.3029 4.18661 11.5094 4.248C12.4098 4.51688 13.2343 4.99372 13.9164 5.64C14.0729 5.78826 14.2731 5.88199 14.4872 5.90722C14.7012 5.93245 14.9177 5.88783 15.1044 5.78L16.2224 5.134L17.2224 6.866L16.1054 7.511C15.919 7.6186 15.7723 7.78347 15.6871 7.98111C15.6019 8.17874 15.5827 8.39859 15.6324 8.608C15.8499 9.52325 15.8499 10.4767 15.6324 11.392C15.5827 11.6014 15.6019 11.8213 15.6871 12.0189C15.7723 12.2165 15.919 12.3814 16.1054 12.489L17.2224 13.134L16.2224 14.866L15.1034 14.22C14.9169 14.1124 14.7006 14.0679 14.4867 14.0931C14.2728 14.1184 14.0728 14.212 13.9164 14.36C13.2343 15.0063 12.4098 15.4832 11.5094 15.752C11.3029 15.8134 11.1218 15.9398 10.993 16.1124C10.8642 16.285 10.7945 16.4946 10.7944 16.71V18H8.7944V16.71C8.79429 16.4946 8.72464 16.285 8.59581 16.1124C8.46698 15.9398 8.28586 15.8134 8.0794 15.752C7.17902 15.4832 6.35449 15.0063 5.6724 14.36C5.51592 14.2117 5.31573 14.118 5.10164 14.0928C4.88756 14.0676 4.67106 14.1122 4.4844 14.22L3.3664 14.866L2.3664 13.134L3.4834 12.489C3.6698 12.3814 3.8165 12.2165 3.90172 12.0189C3.98693 11.8213 4.00611 11.6014 3.9564 11.392C3.73888 10.4767 3.73888 9.52325 3.9564 8.608C4.00611 8.39859 3.98693 8.17874 3.90172 7.98111C3.8165 7.78347 3.6698 7.6186 3.4834 7.511L2.3664 6.866L3.3664 5.134L4.4844 5.78C4.67106 5.88783 4.88756 5.93245 5.10164 5.90722C5.31573 5.88199 5.51592 5.78826 5.6724 5.64C6.35451 4.99372 7.17904 4.51688 8.0794 4.248C8.28586 4.18661 8.46698 4.06021 8.59581 3.8876C8.72464 3.71498 8.79429 3.50539 8.7944 3.29ZM7.7944 10C7.7944 9.46957 8.00512 8.96086 8.38019 8.58579C8.75526 8.21071 9.26397 8 9.7944 8C10.3248 8 10.8335 8.21071 11.2086 8.58579C11.5837 8.96086 11.7944 9.46957 11.7944 10C11.7944 10.5304 11.5837 11.0391 11.2086 11.4142C10.8335 11.7893 10.3248 12 9.7944 12C9.26397 12 8.75526 11.7893 8.38019 11.4142C8.00512 11.0391 7.7944 10.5304 7.7944 10ZM9.7944 6C8.73354 6 7.71612 6.42143 6.96598 7.17157C6.21583 7.92172 5.7944 8.93913 5.7944 10C5.7944 11.0609 6.21583 12.0783 6.96598 12.8284C7.71612 13.5786 8.73354 14 9.7944 14C10.8553 14 11.8727 13.5786 12.6228 12.8284C13.373 12.0783 13.7944 11.0609 13.7944 10C13.7944 8.93913 13.373 7.92172 12.6228 7.17157C11.8727 6.42143 10.8553 6 9.7944 6Z" fill="white"/>
</svg>
