<svg width="16" height="15" viewBox="0 0 16 15" fill="none" xmlns="http://www.w3.org/2000/svg">
<path fill-rule="evenodd" clip-rule="evenodd" d="M0.766562 9.80309e-08C0.563257 9.80309e-08 0.368279 0.079022 0.224521 0.219682C0.0807625 0.360342 0 0.551117 0 0.750041C0 0.948964 0.0807625 1.13974 0.224521 1.2804C0.368279 1.42106 0.563257 1.50008 0.766562 1.50008H1.12838C1.29658 1.50005 1.46013 1.55415 1.59381 1.65404C1.72749 1.75393 1.82387 1.89408 1.86811 2.05286L2.187 3.19742L3.83281 9.10024V10.5006C3.83281 11.0211 4.01295 11.4996 4.31574 11.8806C4.09902 12.1197 3.94834 12.409 3.878 12.7211C3.80767 13.0331 3.82 13.3576 3.91385 13.6637C4.00769 13.9698 4.17993 14.2473 4.4142 14.47C4.64848 14.6926 4.93703 14.853 5.25245 14.9358C5.56788 15.0187 5.89972 15.0213 6.21647 14.9435C6.53322 14.8656 6.82438 14.7098 7.0623 14.4909C7.30022 14.272 7.47701 13.9972 7.5759 13.6926C7.67478 13.3881 7.69247 13.0638 7.62729 12.7507H10.0036C9.9441 13.037 9.95376 13.333 10.0319 13.615C10.11 13.897 10.2543 14.1572 10.4535 14.375C10.6526 14.5927 10.901 14.7619 11.1788 14.869C11.4566 14.9762 11.7562 15.0183 12.0536 14.9921C12.351 14.9659 12.638 14.872 12.8918 14.718C13.1455 14.5639 13.359 14.354 13.5151 14.105C13.6713 13.8559 13.7658 13.5746 13.7911 13.2835C13.8164 12.9923 13.7718 12.6995 13.6609 12.4282C13.7407 12.3157 13.7874 12.184 13.7961 12.0474C13.8049 11.9107 13.7752 11.7744 13.7104 11.6531C13.6455 11.5318 13.548 11.4301 13.4283 11.3592C13.3087 11.2882 13.1715 11.2507 13.0316 11.2506H6.13326C5.92996 11.2506 5.73498 11.1716 5.59122 11.0309C5.44746 10.8903 5.3667 10.6995 5.3667 10.5006V9.75053H13.2132C13.5496 9.75059 13.8767 9.64239 14.1441 9.44261C14.4114 9.24282 14.6042 8.96254 14.6927 8.64497L15.946 4.14472C16.0081 3.92205 16.0168 3.68838 15.9714 3.46189C15.9261 3.2354 15.8279 3.02219 15.6846 2.83887C15.5413 2.65555 15.3567 2.50705 15.1452 2.40494C14.9337 2.30282 14.7009 2.24984 14.465 2.25012H3.51239L3.34758 1.65759C3.21472 1.18137 2.9255 0.761116 2.52448 0.461581C2.12346 0.162045 1.63289 -0.000145567 1.12838 9.80309e-08H0.766562ZM11.8817 12.7507C11.7801 12.7507 11.6826 12.7902 11.6107 12.8605C11.5388 12.9309 11.4984 13.0262 11.4984 13.1257C11.4984 13.2252 11.5388 13.3206 11.6107 13.3909C11.6826 13.4612 11.7801 13.5007 11.8817 13.5007C11.9834 13.5007 12.0809 13.4612 12.1527 13.3909C12.2246 13.3206 12.265 13.2252 12.265 13.1257C12.265 13.0262 12.2246 12.9309 12.1527 12.8605C12.0809 12.7902 11.9834 12.7507 11.8817 12.7507ZM13.2125 8.25045H5.18503L3.93016 3.7502H14.4658L13.2125 8.25045ZM5.74922 12.7507C5.64756 12.7507 5.55007 12.7902 5.4782 12.8605C5.40632 12.9309 5.36594 13.0262 5.36594 13.1257C5.36594 13.2252 5.40632 13.3206 5.4782 13.3909C5.55007 13.4612 5.64756 13.5007 5.74922 13.5007C5.85087 13.5007 5.94836 13.4612 6.02024 13.3909C6.09212 13.3206 6.1325 13.2252 6.1325 13.1257C6.1325 13.0262 6.09212 12.9309 6.02024 12.8605C5.94836 12.7902 5.85087 12.7507 5.74922 12.7507Z" fill="#BDBDBD"/>
</svg>
