<svg width="16" height="16" viewBox="0 0 16 16" fill="none" xmlns="http://www.w3.org/2000/svg">
<path fill-rule="evenodd" clip-rule="evenodd" d="M2.48262 5.63441L4.85996 4.79579C4.36911 5.45652 3.94756 6.166 3.60196 6.91302L2.48262 5.63441ZM0.831289 5.77241L3.03329 8.28828L2.71462 9.08558C2.66612 9.20658 2.65417 9.33915 2.68024 9.46688C2.70631 9.5946 2.76925 9.71189 2.86129 9.80421L3.07129 10.0135C1.93529 11.2935 1.30862 12.6327 0.700623 14.4553C0.66145 14.5728 0.655765 14.6988 0.684205 14.8193C0.712646 14.9398 0.774087 15.05 0.861644 15.1376C0.949201 15.2251 1.05941 15.2866 1.17993 15.315C1.30044 15.3435 1.42649 15.3378 1.54396 15.2986C3.36662 14.6906 4.70596 14.064 5.98596 12.9281L6.19529 13.1374C6.28754 13.2295 6.4048 13.2926 6.53253 13.3188C6.66027 13.345 6.79288 13.3331 6.91396 13.2847L7.71129 12.9661L10.2273 15.1679C10.3092 15.2397 10.4076 15.2903 10.5136 15.3153C10.6196 15.3403 10.7302 15.3389 10.8356 15.3113C10.941 15.2837 11.038 15.2306 11.1181 15.1568C11.1983 15.083 11.2591 14.9907 11.2953 14.888L13.286 9.24824C14.6082 7.68374 15.3335 5.70152 15.3333 3.65318V1.33329C15.3333 1.15649 15.263 0.986927 15.138 0.861909C15.013 0.736891 14.8434 0.666657 14.6666 0.666657H12.3466C10.2985 0.66637 8.31642 1.39142 6.75196 2.71322L1.11196 4.70446C1.00932 4.7407 0.917114 4.80152 0.843401 4.88161C0.769688 4.9617 0.716707 5.05861 0.689086 5.1639C0.661465 5.26918 0.660045 5.37962 0.68495 5.48558C0.709855 5.59154 0.760326 5.68978 0.831956 5.77174L0.831289 5.77241ZM2.45662 13.5427C2.87529 12.5321 3.34462 11.7281 4.01596 10.9582L5.04129 11.9834C4.27129 12.6547 3.46729 13.124 2.45662 13.5427ZM6.82729 11.8841L6.47129 11.5281L4.47129 9.52822L4.11529 9.17224L4.58862 7.98897C5.023 6.90345 5.63292 5.89674 6.39396 5.00911L6.77796 4.56047C7.46651 3.75725 8.32071 3.11253 9.28194 2.67054C10.2432 2.22856 11.2886 1.99979 12.3466 1.99992H14V3.65318C14.0001 4.7111 13.7713 5.75654 13.3293 6.71771C12.8873 7.67889 12.2425 8.53305 11.4393 9.22157L10.9906 9.60555C10.1029 10.3665 9.09618 10.9764 8.01062 11.4108L6.82729 11.8841ZM10.3653 13.5167L9.08662 12.3981C9.83369 12.0525 10.5432 11.631 11.204 11.1401L10.3653 13.5167ZM9.99996 5.3331C9.99996 5.15629 10.0702 4.98673 10.1952 4.86171C10.3202 4.7367 10.4898 4.66646 10.6666 4.66646C10.8434 4.66646 11.013 4.7367 11.138 4.86171C11.2631 4.98673 11.3333 5.15629 11.3333 5.3331C11.3333 5.5099 11.2631 5.67946 11.138 5.80448C11.013 5.92949 10.8434 5.99973 10.6666 5.99973C10.4898 5.99973 10.3202 5.92949 10.1952 5.80448C10.0702 5.67946 9.99996 5.5099 9.99996 5.3331ZM10.6666 3.33319C10.1362 3.33319 9.62748 3.5439 9.25241 3.91895C8.87733 4.29401 8.66662 4.80269 8.66662 5.3331C8.66662 5.8635 8.87733 6.37219 9.25241 6.74724C9.62748 7.12229 10.1362 7.333 10.6666 7.333C11.1971 7.333 11.7058 7.12229 12.0808 6.74724C12.4559 6.37219 12.6666 5.8635 12.6666 5.3331C12.6666 4.80269 12.4559 4.29401 12.0808 3.91895C11.7058 3.5439 11.1971 3.33319 10.6666 3.33319Z" fill="#BDBDBD"/>
</svg>
