<svg width="124" height="19" viewBox="0 0 124 19" fill="none" xmlns="http://www.w3.org/2000/svg">
<path d="M35.864 15.224C34.7547 15.224 33.8213 14.9787 33.064 14.488C32.3067 13.9867 31.7733 13.3093 31.464 12.456L33.352 11.352C33.7893 12.4933 34.648 13.064 35.928 13.064C36.5467 13.064 37 12.952 37.288 12.728C37.576 12.504 37.72 12.2213 37.72 11.88C37.72 11.4853 37.544 11.1813 37.192 10.968C36.84 10.744 36.2107 10.504 35.304 10.248C34.8027 10.0987 34.376 9.94933 34.024 9.8C33.6827 9.65067 33.336 9.45333 32.984 9.208C32.6427 8.952 32.3813 8.632 32.2 8.248C32.0187 7.864 31.928 7.416 31.928 6.904C31.928 5.89067 32.2853 5.08533 33 4.488C33.7253 3.88 34.5947 3.576 35.608 3.576C36.5147 3.576 37.3093 3.8 37.992 4.248C38.6853 4.68533 39.224 5.29867 39.608 6.088L37.752 7.16C37.304 6.2 36.5893 5.72 35.608 5.72C35.1493 5.72 34.7867 5.82667 34.52 6.04C34.264 6.24267 34.136 6.50933 34.136 6.84C34.136 7.192 34.28 7.48 34.568 7.704C34.8667 7.91733 35.432 8.152 36.264 8.408C36.6053 8.51467 36.8613 8.6 37.032 8.664C37.2133 8.71733 37.4533 8.808 37.752 8.936C38.0613 9.05333 38.296 9.16533 38.456 9.272C38.6267 9.37867 38.8187 9.52267 39.032 9.704C39.2453 9.88533 39.4053 10.072 39.512 10.264C39.6293 10.456 39.7253 10.6907 39.8 10.968C39.8853 11.2347 39.928 11.528 39.928 11.848C39.928 12.8827 39.5493 13.704 38.792 14.312C38.0453 14.92 37.0693 15.224 35.864 15.224ZM45.6138 8.984H43.8058V12.312C43.8058 12.5893 43.8751 12.792 44.0138 12.92C44.1524 13.048 44.3551 13.1227 44.6218 13.144C44.8884 13.1547 45.2191 13.1493 45.6138 13.128V15C44.1951 15.16 43.1924 15.0267 42.6058 14.6C42.0298 14.1733 41.7418 13.4107 41.7418 12.312V8.984H40.3498V7H41.7418V5.384L43.8058 4.76V7H45.6138V8.984ZM49.258 8.376C49.45 7.864 49.7647 7.48 50.202 7.224C50.65 6.968 51.146 6.84 51.69 6.84V9.144C51.0607 9.06933 50.4953 9.19733 49.994 9.528C49.5033 9.85867 49.258 10.408 49.258 11.176V15H47.194V7H49.258V8.376ZM54.3443 11.848C54.6216 12.8507 55.3736 13.352 56.6003 13.352C57.3896 13.352 57.9869 13.0853 58.3923 12.552L60.0563 13.512C59.2669 14.6533 58.1043 15.224 56.5683 15.224C55.2456 15.224 54.1843 14.824 53.3843 14.024C52.5843 13.224 52.1842 12.216 52.1842 11C52.1842 9.79467 52.5789 8.792 53.3683 7.992C54.1576 7.18133 55.1709 6.776 56.4083 6.776C57.5816 6.776 58.5469 7.18133 59.3043 7.992C60.0723 8.80267 60.4563 9.80533 60.4563 11C60.4563 11.2667 60.4296 11.5493 60.3763 11.848H54.3443ZM54.3123 10.248H58.3923C58.2749 9.704 58.0296 9.29867 57.6563 9.032C57.2936 8.76533 56.8776 8.632 56.4083 8.632C55.8536 8.632 55.3949 8.776 55.0323 9.064C54.6696 9.34133 54.4296 9.736 54.3123 10.248ZM63.4886 9.272C63.4886 9.48533 63.6273 9.66133 63.9046 9.8C64.1926 9.928 64.5393 10.0453 64.9446 10.152C65.35 10.248 65.7553 10.376 66.1606 10.536C66.566 10.6853 66.9073 10.9413 67.1846 11.304C67.4726 11.6667 67.6166 12.12 67.6166 12.664C67.6166 13.4853 67.3073 14.12 66.6886 14.568C66.0806 15.0053 65.318 15.224 64.4006 15.224C62.758 15.224 61.638 14.5893 61.0406 13.32L62.8326 12.312C63.0673 13.0053 63.59 13.352 64.4006 13.352C65.1366 13.352 65.5046 13.1227 65.5046 12.664C65.5046 12.4507 65.3606 12.28 65.0726 12.152C64.7953 12.0133 64.454 11.8907 64.0486 11.784C63.6433 11.6773 63.238 11.544 62.8326 11.384C62.4273 11.224 62.0806 10.9733 61.7926 10.632C61.5153 10.28 61.3766 9.84267 61.3766 9.32C61.3766 8.53067 61.6646 7.912 62.2406 7.464C62.8273 7.00533 63.5526 6.776 64.4166 6.776C65.0673 6.776 65.6593 6.92533 66.1926 7.224C66.726 7.512 67.1473 7.928 67.4566 8.472L65.6966 9.432C65.4406 8.888 65.014 8.616 64.4166 8.616C64.15 8.616 63.926 8.67467 63.7446 8.792C63.574 8.90933 63.4886 9.06933 63.4886 9.272ZM70.4261 9.272C70.4261 9.48533 70.5648 9.66133 70.8421 9.8C71.1301 9.928 71.4768 10.0453 71.8821 10.152C72.2875 10.248 72.6928 10.376 73.0981 10.536C73.5035 10.6853 73.8448 10.9413 74.1221 11.304C74.4101 11.6667 74.5541 12.12 74.5541 12.664C74.5541 13.4853 74.2448 14.12 73.6261 14.568C73.0181 15.0053 72.2555 15.224 71.3381 15.224C69.6955 15.224 68.5755 14.5893 67.9781 13.32L69.7701 12.312C70.0048 13.0053 70.5275 13.352 71.3381 13.352C72.0741 13.352 72.4421 13.1227 72.4421 12.664C72.4421 12.4507 72.2981 12.28 72.0101 12.152C71.7328 12.0133 71.3915 11.8907 70.9861 11.784C70.5808 11.6773 70.1755 11.544 69.7701 11.384C69.3648 11.224 69.0181 10.9733 68.7301 10.632C68.4528 10.28 68.3141 9.84267 68.3141 9.32C68.3141 8.53067 68.6021 7.912 69.1781 7.464C69.7648 7.00533 70.4901 6.776 71.3541 6.776C72.0048 6.776 72.5968 6.92533 73.1301 7.224C73.6635 7.512 74.0848 7.928 74.3941 8.472L72.6341 9.432C72.3781 8.888 71.9515 8.616 71.3541 8.616C71.0875 8.616 70.8635 8.67467 70.6821 8.792C70.5115 8.90933 70.4261 9.06933 70.4261 9.272ZM77.5161 11.848C77.7935 12.8507 78.5455 13.352 79.7721 13.352C80.5615 13.352 81.1588 13.0853 81.5641 12.552L83.2281 13.512C82.4388 14.6533 81.2761 15.224 79.7401 15.224C78.4175 15.224 77.3561 14.824 76.5561 14.024C75.7561 13.224 75.3561 12.216 75.3561 11C75.3561 9.79467 75.7508 8.792 76.5401 7.992C77.3295 7.18133 78.3428 6.776 79.5801 6.776C80.7535 6.776 81.7188 7.18133 82.4761 7.992C83.2441 8.80267 83.6281 9.80533 83.6281 11C83.6281 11.2667 83.6015 11.5493 83.5481 11.848H77.5161ZM77.4841 10.248H81.5641C81.4468 9.704 81.2015 9.29867 80.8281 9.032C80.4655 8.76533 80.0495 8.632 79.5801 8.632C79.0255 8.632 78.5668 8.776 78.2041 9.064C77.8415 9.34133 77.6015 9.736 77.4841 10.248ZM87.133 8.376C87.325 7.864 87.6397 7.48 88.077 7.224C88.525 6.968 89.021 6.84 89.565 6.84V9.144C88.9357 9.06933 88.3703 9.19733 87.869 9.528C87.3783 9.85867 87.133 10.408 87.133 11.176V15H85.069V7H87.133V8.376ZM91.7915 14.808C91.5248 15.0747 91.2048 15.208 90.8315 15.208C90.4582 15.208 90.1382 15.0747 89.8715 14.808C89.6048 14.5413 89.4715 14.2213 89.4715 13.848C89.4715 13.4747 89.6048 13.1547 89.8715 12.888C90.1382 12.6213 90.4582 12.488 90.8315 12.488C91.2048 12.488 91.5248 12.6213 91.7915 12.888C92.0582 13.1547 92.1915 13.4747 92.1915 13.848C92.1915 14.2213 92.0582 14.5413 91.7915 14.808ZM97.0801 15.224C95.8748 15.224 94.8668 14.8187 94.0561 14.008C93.2561 13.1973 92.8561 12.1947 92.8561 11C92.8561 9.80533 93.2561 8.80267 94.0561 7.992C94.8668 7.18133 95.8748 6.776 97.0801 6.776C97.8588 6.776 98.5681 6.96267 99.2081 7.336C99.8481 7.70933 100.333 8.21067 100.664 8.84L98.8881 9.88C98.7281 9.54933 98.4828 9.288 98.1521 9.096C97.8321 8.904 97.4695 8.808 97.0641 8.808C96.4455 8.808 95.9335 9.016 95.5281 9.432C95.1228 9.83733 94.9201 10.36 94.9201 11C94.9201 11.6293 95.1228 12.152 95.5281 12.568C95.9335 12.9733 96.4455 13.176 97.0641 13.176C97.4801 13.176 97.8481 13.0853 98.1681 12.904C98.4988 12.712 98.7441 12.4507 98.9041 12.12L100.696 13.144C100.344 13.7733 99.8481 14.28 99.2081 14.664C98.5681 15.0373 97.8588 15.224 97.0801 15.224ZM108.479 14.008C107.657 14.8187 106.655 15.224 105.471 15.224C104.287 15.224 103.284 14.8187 102.463 14.008C101.652 13.1867 101.247 12.184 101.247 11C101.247 9.816 101.652 8.81867 102.463 8.008C103.284 7.18667 104.287 6.776 105.471 6.776C106.655 6.776 107.657 7.18667 108.479 8.008C109.3 8.81867 109.711 9.816 109.711 11C109.711 12.184 109.3 13.1867 108.479 14.008ZM103.919 12.584C104.335 13 104.852 13.208 105.471 13.208C106.089 13.208 106.607 13 107.023 12.584C107.439 12.168 107.647 11.64 107.647 11C107.647 10.36 107.439 9.832 107.023 9.416C106.607 9 106.089 8.792 105.471 8.792C104.852 8.792 104.335 9 103.919 9.416C103.513 9.832 103.311 10.36 103.311 11C103.311 11.64 103.513 12.168 103.919 12.584ZM120.011 6.776C120.928 6.776 121.659 7.07467 122.203 7.672C122.757 8.26933 123.035 9.06933 123.035 10.072V15H120.971V10.216C120.971 9.736 120.853 9.36267 120.619 9.096C120.384 8.82933 120.053 8.696 119.627 8.696C119.157 8.696 118.789 8.85067 118.523 9.16C118.267 9.46933 118.139 9.91733 118.139 10.504V15H116.075V10.216C116.075 9.736 115.957 9.36267 115.723 9.096C115.488 8.82933 115.157 8.696 114.731 8.696C114.272 8.696 113.904 8.85067 113.627 9.16C113.36 9.46933 113.227 9.91733 113.227 10.504V15H111.163V7H113.227V7.848C113.707 7.13333 114.448 6.776 115.451 6.776C116.432 6.776 117.157 7.16 117.627 7.928C118.16 7.16 118.955 6.776 120.011 6.776Z" fill="#1E1E1E"/>
<path fill-rule="evenodd" clip-rule="evenodd" d="M10.507 4.00262C9.44618 4.00262 8.42876 4.42405 7.67862 5.17419C6.92847 5.92434 6.50704 6.94175 6.50704 8.00262V9.00262H5.50704C5.04742 9.00262 4.59229 9.09315 4.16765 9.26904C3.74301 9.44493 3.35718 9.70274 3.03217 10.0277C2.70717 10.3528 2.44936 10.7386 2.27347 11.1632C2.09757 11.5879 2.00704 12.043 2.00704 12.5026C2.00704 12.9622 2.09757 13.4174 2.27347 13.842C2.44936 14.2667 2.70717 14.6525 3.03217 14.9775C3.35718 15.3025 3.74301 15.5603 4.16765 15.7362C4.59229 15.9121 5.04742 16.0026 5.50704 16.0026H15.507C15.9667 16.0026 16.4218 15.9121 16.8464 15.7362C17.2711 15.5603 17.6569 15.3025 17.9819 14.9775C18.3069 14.6525 18.5647 14.2667 18.7406 13.842C18.9165 13.4174 19.007 12.9622 19.007 12.5026C19.007 12.043 18.9165 11.5879 18.7406 11.1632C18.5647 10.7386 18.3069 10.3528 17.9819 10.0277C17.6569 9.70274 17.2711 9.44493 16.8464 9.26904C16.4218 9.09315 15.9667 9.00262 15.507 9.00262H14.507V8.00262C14.507 6.94175 14.0856 5.92434 13.3355 5.17419C12.5853 4.42405 11.5679 4.00262 10.507 4.00262ZM4.57704 7.08062C4.79668 5.6655 5.51514 4.37559 6.60264 3.44385C7.69014 2.51212 9.07499 2 10.507 2C11.9391 2 13.324 2.51212 14.4115 3.44385C15.499 4.37559 16.2174 5.6655 16.437 7.08062C17.7922 7.31719 19.0095 8.05281 19.8491 9.14248C20.6887 10.2321 21.0897 11.5968 20.973 12.9674C20.8563 14.3381 20.2303 15.6153 19.2186 16.5473C18.2068 17.4794 16.8827 17.9986 15.507 18.0026H5.50704C4.12792 18.0044 2.79846 17.488 1.78215 16.5557C0.765838 15.6235 0.13685 14.3434 0.0198418 12.9693C-0.0971663 11.5951 0.306346 10.2271 1.15041 9.13648C1.99447 8.04581 3.21748 7.31205 4.57704 7.08062Z" fill="#1E1E1E"/>
</svg>
